<?xml version="1.0" standalone="no"?>
<!DOCTYPE svg PUBLIC "-//W3C//DTD SVG 1.1//EN" "http://www.w3.org/Graphics/SVG/1.1/DTD/svg11.dtd">
<svg width="100%" height="100%" viewBox="0 0 530 399" version="1.1" xmlns="http://www.w3.org/2000/svg" xmlns:xlink="http://www.w3.org/1999/xlink" xml:space="preserve" style="fill-rule:evenodd;clip-rule:evenodd;stroke-linecap:round;stroke-linejoin:round;stroke-miterlimit:1.41421;">
    <g id="ช้าง" transform="matrix(1,0,0,1,-521.256,-355.176)">
        <g id="ขาด้านหลัง">
            <path d="M779.228,648.307C779.228,659.602 778.177,678.619 779.399,689.837C779.707,692.668 777.715,706.833 782.362,710.5C782.826,710.866 791.064,712.263 796.693,712.487C801.387,712.673 817.916,710.915 826.727,710.068C832.271,709.535 821.921,640.095 824.845,632.915" style="fill:rgb(112,187,210);stroke-width:3px;stroke:black;"/>
        </g>
        <g id="หาง">
            <g>
                <path d="M994.288,417.321C997.895,425.236 1000.35,425.034 1004.63,432.562C1008.53,439.407 1017.21,450.373 1020.4,455.789C1024.84,463.307 1033.61,476.476 1033.61,478.216C1033.61,478.81 1022.65,465.382 1017.51,459.8C1009.19,450.759 1008.19,448.64 1004.65,445.171C1001.8,442.375 997.824,441.301 995.659,439.217C994.444,438.048 992.748,434.292 991.202,434.292" style="fill:rgb(112,187,210);stroke-width:3px;stroke:black;"/>
                <g transform="matrix(1,0,0,1,-2.53184,-4.18048)">
                    <path d="M1032.16,475.24C1036.17,472.565 1040.85,475.212 1044.17,476.908C1045.75,477.713 1046.03,480.054 1047.64,480.858C1050.25,482.164 1050.19,486.155 1051.46,488.651C1057.54,500.605 1049.52,512.491 1049.52,524.447C1049.52,524.872 1048.85,523.923 1048.55,523.622C1047.66,522.733 1047.44,521.962 1046.73,520.961C1045.31,518.98 1044,516.751 1042.23,514.944C1038.07,510.703 1036.5,502.873 1033.74,497.356C1032.27,494.42 1033.2,491.276 1031.76,488.382C1030.72,486.311 1029.42,475.861 1032.77,475.861" style="fill:black;stroke-width:3px;stroke:black;"/>
                </g>
            </g>
        </g>
        <g id="หูขวา">
            <path d="M629.897,419.08C628.009,419.08 617.292,419.985 616.146,420.56C614.415,421.427 601.965,422.166 598.155,424.064C595.533,425.37 589.943,424.466 588.653,427.042C587.914,428.517 588.409,437.507 587.809,439.903C586.851,443.733 588.734,467.657 587.302,470.456C585.098,474.765 585.918,518.505 585.743,523.256C585.42,531.977 583.866,539.623 585.891,543.759C586.482,544.967 603.327,554.415 597.038,550.897C589.777,546.835 616.552,559.019 624.839,559.019" style="fill:rgb(112,187,210);stroke-width:3px;stroke:black;"/>
        </g>
        <g id="เงาหูขวา">
            <path d="M622.216,419.395C623.108,418.8 622.911,418.8 622.911,417.801C622.911,416.489 623.578,420.369 623.578,421.682C623.578,423.667 624.449,428.164 623.578,429.903C621.238,434.574 618.347,436.197 610.143,436.478C609.169,436.512 606.124,434.147 601.911,442.754C599.892,446.879 595.824,470.506 596.242,488.916C596.649,506.853 596.125,524.785 596.125,528.898C596.125,534.63 598.901,544.469 600.002,549.973C600.119,550.557 590.523,551.696 589.466,546.583C587.538,537.26 589.539,525.653 586.539,519.629C583.358,513.245 588.448,506.044 586.77,501.851C586.161,500.328 588.68,492.122 587.002,490.445C584.716,488.159 584.566,438.39 588.447,430.801C591.934,423.984 605.284,424.806 611.875,421.504C613.462,420.709 624.986,421.347 624.986,420.145" style="fill:white;fill-opacity:0.204773;"/>
        </g>
        <g id="ตัว">
            <g>
                <path d="M921.015,371.98C895.658,372.568 722.908,364.701 700.005,365.648C692.345,365.965 643.089,370.837 635.311,376.191C620.666,386.272 614.1,449.669 613.491,455.155C612.085,467.827 612.206,478.295 611.548,490.947C608.832,543.159 614.786,588.3 617.568,640.722C618.848,664.836 618.164,657.205 621.088,681.264C623.1,697.816 619.599,710.647 623.354,730.278C624.008,733.696 625.357,751.523 626.275,751.511C628.524,751.483 642.641,753.948 651.891,752.267C658.074,751.143 679.208,753.272 680.993,747.247C682.916,740.755 685.503,724.647 683.076,711.709C681.596,703.815 682.325,687.672 681.319,679.704C680.722,674.974 676.256,662.612 678.411,662.89C687.826,664.106 739.136,665.178 749.425,665.633C754.276,665.848 789.687,663.542 794.56,662.617C797.86,661.99 805.927,660.163 808.206,663.33C810.308,666.251 810.035,680.238 811.598,698.329C812.832,712.613 813.575,750.979 818.569,750.998C820.763,751.006 836.06,754.472 845.086,753.506C850.496,752.927 862.868,751.509 868.174,750.302C876.014,748.517 876.397,732.548 875.976,726.823C874.611,708.224 875.78,703.4 874.62,684.787C874.225,678.456 873.827,660.572 876.718,660.012C889.972,657.443 903.224,660.211 916.167,660.261C929.357,660.313 957.259,656.251 960,655.602C963.404,654.796 962.958,672.643 965.916,690.304C966.546,694.066 973.185,729.904 975.97,732.9C978.297,735.404 990.54,735.682 993.359,735.081C1010.06,731.52 1012.38,731.739 1027.82,724.649C1030.28,723.518 1035.1,721.593 1036.15,718.539C1037.51,714.602 1038.76,708.832 1037.85,705.182C1035.75,696.717 1032.08,677.104 1029.81,668.682C1026.01,654.571 1015.95,590.511 1014.11,577.799C1010.36,551.803 1007.33,504.27 1006.65,478.006C1006.32,465.173 999.483,421.791 1000.33,409.021C1000.89,400.439 991.284,378.162 989.97,377.635C977.968,372.818 939.432,371.553 921.015,371.98Z" style="fill:rgb(112,187,210);stroke-width:3px;stroke:black;"/>
                <path d="M663.041,662.313C671.592,665.371 694.406,665.291 697.484,665.291C704.874,665.291 723.908,666.832 731.387,666.832C738.902,666.832 762.573,666.055 769.127,666.055C772.317,666.055 789.124,665.917 798.827,663.626C811.036,660.743 808.44,662.522 819.798,658.471" style="fill:rgb(112,187,210);stroke-width:3px;stroke:black;"/>
                <path d="M954.195,655.979C956.237,655.979 962.774,656.398 964.225,655.006C964.934,654.327 968.744,651.563 970.161,651.563" style="fill:none;stroke-width:3px;stroke:black;"/>
            </g>
        </g>
        <g id="เงาตัวช้าง">
            <path d="M615.427,436.353C620.235,393.176 629.816,379.611 641.893,373.562C654.493,367.25 706.48,364.252 718.32,364.674C751.275,365.847 839.94,369.447 877.661,369.447C895.253,369.447 963.772,371.51 989.229,377.442C991.597,377.994 1000.51,394.685 992.559,384.012C990.783,381.629 986.368,383.364 981.179,380.765C976.936,378.639 951.388,374.551 940.533,375.877C934.813,376.576 861.496,377.464 854.625,378.169C842.139,379.449 825.143,393.684 820.989,406.682C810.249,440.284 814.443,564.016 813.955,574.718C812.399,608.837 828.849,749.171 826.268,751.853C825.218,752.944 820.567,754.01 818.507,752.577C814.937,750.095 813.508,667.33 808.14,661.731C806.569,660.093 785.023,664.164 771.645,664.679C753.49,665.378 729.682,665.362 706.911,665.26C702.28,665.239 679.673,663.287 671.994,663.202C669.093,663.17 670.364,682.392 672.319,702.933C674.375,724.541 674.211,747.15 671.614,749.747C668.02,753.341 654.757,752.098 651.148,752.098C646.309,752.098 632.393,753.987 628.861,750.765C621.959,744.467 612.703,602.077 612.703,586.484C612.703,579.684 610.94,476.639 615.427,436.353Z" style="fill:white;fill-opacity:0.2;"/>
        </g>
        <g id="เล็บ">
            <path d="M629.107,752.863C629.107,747.847 631.761,743.012 636.178,740.85C637.558,740.174 639.765,737.389 641.669,738.358C644.371,739.732 645.51,745.038 646.714,747.393C647.144,748.233 646.257,750.142 647.2,750.183C648.056,750.22 647.842,744.89 648.194,744.185C649.225,742.117 650.492,741.4 651.637,740.255C651.74,740.152 654.015,740.157 654.108,740.255C655.688,741.903 658.541,745.085 659.559,747.205C659.707,747.512 659.809,750.199 660.532,749.697C660.982,749.384 660.532,745.427 660.532,744.861C660.532,741.3 660.764,738.519 662.982,736.392C664.36,735.071 667.632,737.031 668.494,737.89C671.55,740.94 671.736,742.905 673.647,746.719C673.918,747.261 675.538,750.046 674.302,750.54C671.521,751.653 665.909,751.999 662.876,751.999C661.928,751.999 657.523,751.395 656.919,751.999C655.899,753.019 652.498,751.477 651.447,752.485C650.234,753.648 647.65,752.115 645.977,752.971C642.027,754.992 633.638,753.478 629.02,753.478" style="fill:white;stroke-width:3px;stroke:black;"/>
            <path d="M792.976,712.958C791.122,711.843 792.934,710.059 792.132,708.458C791.012,706.222 790.987,699.27 792.132,696.931C792.75,695.668 796.533,692.209 798.277,693.953C801.367,697.043 801.804,703.37 801.804,707.548C801.804,708.048 801.804,706.548 801.804,706.048C801.804,705.21 801.804,704.372 801.804,703.535C801.804,701.288 801.877,692.723 806.301,694.986C809.547,696.646 809.827,704.023 809.827,707.548C809.827,708.204 810.236,711.112 809.827,711.539C809.396,711.988 806.003,711.539 805.308,711.539C800.747,711.539 796.786,711.032 792.32,711.032" style="fill:white;stroke-width:3px;stroke:black;"/>
            <path d="M817.72,748.365C817.72,745.528 821.919,736.288 827.122,738.945C830.987,740.918 829.599,745.433 831.62,747.454C831.979,747.813 832.003,751.401 832.613,750.979C832.924,750.764 832.484,749.038 832.613,748.656C833.659,745.555 833.678,741.984 835.124,739.093C836.124,737.094 840.24,735.802 842.053,737.615C845.42,740.982 848.537,745.52 848.537,751.148C848.537,751.979 848.537,749.487 848.537,748.656C848.537,747.835 848.755,746.451 849.024,745.657C850.256,742.015 851.792,739.56 853.561,736.095C853.975,735.285 855.189,735.463 855.588,735.081C859.246,731.574 860.819,738.997 861.605,740.633C863.387,744.343 861.253,749.828 858.608,751.148C855.829,752.535 851.328,750.309 848.577,751.655C843.065,754.353 834.471,753.135 827.648,753.135C824.638,753.135 816.201,754.028 816.201,750.683" style="fill:white;stroke-width:3px;stroke:black;"/>
            <g transform="matrix(1,0,0,1,-1,0)">
                <path d="M980.341,734.939C980.341,734.939 979.779,729.246 979.779,725.896C979.779,723.377 979.779,720.859 979.779,718.34C979.779,714.708 986.51,707.473 990.592,711.478C994.237,715.055 996.793,720.593 999.312,725.518C999.655,726.188 1000.29,730.479 1001.34,730.523C1002.83,730.584 1001.34,727.538 1001.34,726.046C1001.34,722.485 1001.15,718.256 1004.55,716.523C1009.05,714.219 1011.08,720.632 1012.38,723.174C1012.59,723.59 1013.6,727.959 1013.9,727.674C1014.65,726.955 1013.72,722.245 1013.9,721.168C1014.98,714.709 1014.89,712.16 1020.25,709.43C1021.21,708.942 1022.86,707.72 1024.23,708.418C1028.02,710.357 1029.76,715.64 1029.76,719.461C1029.76,720.023 1030.62,723.365 1030.26,723.721C1029.16,724.824 1026.02,725.575 1024.31,726.43C1021.31,727.924 1014.22,729.69 1011.87,731.942C1011.25,732.534 1007.71,732.145 1006.86,732.428C1002.68,733.817 997.685,733.97 993.794,735.911C990.274,737.668 983.988,734.939 980.341,734.939Z" style="fill:white;stroke-width:3px;stroke:black;"/>
            </g>
        </g>
        <g id="งวง">
            <g>
                <path d="M652.647,508.88C642.268,521.57 633.863,537.114 631.373,540.282C626.854,546.03 618.504,550.917 614.942,554.479C614.539,554.882 609.219,559.292 604.886,559.516C599.74,559.782 584.044,549.084 580.588,546.536C570.063,538.776 561.856,528.068 548.096,521.03C547.323,520.635 540.931,525.696 535.549,530.958C530.963,535.441 525.557,545.101 521.271,549.226C520.996,549.49 524.576,556.567 525.032,556.871C533.988,562.841 539.34,567.243 547.372,575.26C551.81,579.689 562.989,591.94 565.296,594.918C570.282,601.354 586.992,624.584 588.82,625.513C591.876,627.068 598.672,630.908 602.907,628.875C612.158,624.435 620.246,614.07 631.939,605.224C638.592,600.191 654.322,589.523 661.077,585.046C664.694,582.648 688.211,568.85 688.211,566.398" style="fill:rgb(112,187,210);stroke-width:3px;stroke:black;"/>
                <path d="M633.128,571.14C631.488,563.183 625.393,557.003 619.783,551.393" style="fill:none;stroke-width:3px;stroke:black;"/>
                <path d="M613.787,579.982C613.787,574.235 610.143,569.151 607.849,564.563C607.137,563.139 605.399,561.619 605.399,560.652" style="fill:none;stroke-width:3px;stroke:black;"/>
            </g>
        </g>
        <g id="เงางวงช้าง">
            <g opacity="0.2">
                <path d="M676.888,548.04L653.021,509.451C653.021,509.451 641.108,524.299 638.192,530.245C636.05,534.612 617.79,553.266 615.247,555.809C615.168,555.888 614.11,561.186 606.755,559.718C587.813,555.937 560.917,530.712 560.606,531.023C558.549,533.08 566.405,544.815 567.328,546.661C570.332,552.669 581.876,573.433 592.033,579.989C601.685,586.218 614.832,597.731 617.21,596.421C636.383,585.863 643.8,578.978 655.653,569.616C667.931,559.919 676.888,548.04 676.888,548.04Z" style="fill:white;"/>
            </g>
        </g>
        <g id="หูซ้าย">
            <path d="M823.322,412.639C836.671,414.655 847.177,415.603 862.953,415.3C865.026,415.261 867.554,415.953 869.518,415.3C872.037,414.463 882.546,416.636 883.708,414.964C884.246,414.19 890.359,418.015 890.359,419.124C890.359,422.021 890.824,435.766 891.92,444.397C892.522,449.134 893.27,462.905 892.515,471.147C891.86,478.302 891.668,498.361 893.147,505.428C894.909,513.842 893.796,529.893 893.945,533.664C894.135,538.455 875.537,544.004 864.56,548.743C857.141,551.946 845.992,556.044 837.453,556.044" style="fill:rgb(112,187,210);stroke-width:3px;stroke:black;"/>
        </g>
        <g id="เงาหูซ้าย">
            <path d="M890.106,417.947C884.193,417.947 869.094,430.384 866.247,433.124C855.556,443.414 851.466,466.784 844.94,479.616C841.061,487.243 839.212,496.291 836.661,503.934C836.511,504.384 833.931,515.665 832.752,513.312C829.996,507.811 829.132,479.611 829.132,462.156C829.132,456.898 827.264,411.345 831.77,413.291C837.411,415.727 845.659,415.031 852.606,415.031C859,415.031 880.809,416.624 886.273,416.624C887.748,416.624 890.106,417.947 890.106,417.947Z" style="fill:white;fill-opacity:0.2;"/>
        </g>
        <g id="ตา">
            <path d="M612.508,481.704C614.226,478.336 616.27,474.052 618.338,471.985C621.033,469.289 633.902,468.744 636.775,471.498C639.153,473.778 643.045,476.612 644.608,479.799C648.704,488.152 647.735,500.517 639.542,508.711C632.79,515.462 619.146,511.77 615.405,504.443C614.078,501.843 614.061,496.128 612.408,494.475C612.106,494.173 612.408,491.968 612.408,491.497C612.408,489.821 611.782,481.487 613.42,481.487" style="fill:white;stroke-width:3px;stroke:black;"/>
            <path d="M624.455,478.004C626.333,478.004 630.044,475.176 632.756,476.503C640.011,480.055 639.1,493.491 635.633,500.27C634.062,503.341 630.903,502.593 627.732,504.179C623.762,506.164 620.427,502.176 619.202,499.721C615.396,492.096 617.553,478.913 625.563,478.913" style="fill:black;stroke-width:3px;stroke:black;"/>
            <path d="M624.746,481.474C628.378,480.546 633.215,480.267 633.215,485.424C633.215,485.977 633.568,488.576 633.215,488.929C631.504,490.64 629.966,491.557 627.238,492.921C622.095,495.493 619.594,482.953 625.171,482.953" style="fill:white;stroke-width:3px;stroke:black;"/>
            <path d="M711.638,475.685C714.844,468.784 722.548,465.707 723.389,465.278C725.278,464.315 727.081,464.287 729.324,464.287C734.633,464.287 743.169,465.669 746.728,469.229C749.325,471.826 753.25,475.57 754.611,479.096C757.23,485.882 754.641,495.973 753.617,497.979C751.603,501.925 747.603,506.28 743.689,507.886C736.531,510.824 728.307,512.534 718.585,509.009C712.059,506.642 706.95,497.91 706.95,492.218C706.95,487.86 709.791,479.659 711.638,475.685Z" style="fill:white;stroke-width:3px;stroke:black;"/>
            <path d="M726.441,474.416C734.569,471.157 741.368,479.732 744.588,482.952C745.317,483.681 744.564,485.397 745.074,486.397C745.745,487.714 746.231,492.649 745.093,493.831C743.526,495.459 742.003,498.862 739.218,500.255C736.906,501.411 733.904,501.597 732.268,503.233C731.87,503.631 728.941,503.233 728.318,503.233C724.433,503.233 719.358,503.175 717.377,499.303C712.533,489.832 716.576,473.935 726.819,473.935" style="fill:black;stroke-width:3px;stroke:black;"/>
            <path d="M725.995,480.441C727.657,478.309 731.054,475.528 734.316,477.124C735.992,477.945 736.782,484.06 735.288,485.613C733.521,487.449 728.643,487.548 726.798,486.606C726.117,486.258 724.878,482.19 725.805,481.263C726.303,480.765 727.065,480.995 727.792,480.272" style="fill:white;stroke-width:3px;stroke:black;"/>
        </g>
    </g>
    <g id="ผ้าขาวม้า" transform="matrix(1,0,0,1,-521.256,-355.176)">
        <g id="ผ้าขาวม้าคาดเอว">
            <g id="ผ้าขาวม้าคาดเอว1">
                <path d="M774.371,367.656C774.371,367.656 780.641,362.142 796.303,362.142C806.896,362.142 906.937,357.846 923.428,356.878C935.039,356.197 956.299,359.671 963.259,372.395C975.688,395.121 975.489,448.042 974.101,508.752C973.278,544.748 970.765,583.422 967.152,619.926C965.086,640.8 950.702,657.791 941.72,662.333C935.368,665.544 899.112,669.941 896.738,664.004C896.004,662.169 901.09,661.701 902.183,661.701C905.515,661.701 919.267,656.918 922.506,653.812C930.638,646.015 931.616,633.927 933.959,621.544C945.659,559.698 941.48,416.73 939.709,401.598C937.475,382.505 930.223,371.588 929.337,371.542C899.287,369.983 785.413,367.939 774.371,367.656Z" style="fill:white;stroke-width:3px;stroke:black;"/>
            </g>
            <g id="ลายผ้าขาวม้า">
                <g opacity="0.6">
                    <path d="M781.12,366.116C781.12,366.116 846.864,367.986 858.498,366.103C863.517,365.291 887.701,363.78 898.794,363.433C938.886,362.179 935.362,363.83 941.073,376.742C950.699,398.506 950.157,451.292 952.451,497.361C952.957,507.527 949.138,565.201 948.091,572.589C944.617,597.11 943.81,621.766 936.645,644.688C935.22,649.248 924.141,658.992 919.535,660.542C916.349,661.613 911.168,660.372 910.856,662.322C910.529,664.361 910.575,667.133 912.758,666.405C913.798,666.058 924.6,663.033 925.656,662.291C946.332,647.76 944.037,639.771 947.227,626.613C960.584,571.513 957.557,535.687 958.664,475.207C959.039,454.753 957.088,417.355 953.054,397.146C951.426,388.992 947.69,370.87 943.17,366.263C938.087,361.082 927.045,360.13 920.471,359.42C904.124,357.656 887.247,359.733 870.796,360.593C862.799,361.012 856.412,361.079 848.049,361.497C833.485,362.225 808.672,362.461 793.849,363.781C779.36,365.07 782.015,366.116 781.12,366.116Z" style="fill:rgb(255,0,0);"/>
                    <path d="M936.933,358.98C936.933,358.98 950.928,364.659 956.824,374.165C959.433,378.371 963.396,411.261 964.52,416.07C968.122,431.488 965.708,457.538 965.928,467.745C966.195,480.166 965.756,501.086 965.756,512.075C965.756,527.59 964.362,554.377 963.272,569.853C962.924,574.789 958.047,601.27 957.485,608.305C956.586,619.557 955.558,635.958 950.585,645.903C946.296,654.482 938.971,662.416 939.445,661.469C940.551,659.261 940.849,662.808 942.513,661.182C946.8,656.99 951.296,654.28 953.828,648.614C959.91,635.003 961.933,615.965 963.421,606.351C964.038,602.369 965.803,584.684 967.403,570.793C969.426,553.218 970.29,532.085 970.346,512.941C970.384,499.723 969.669,476.205 969.669,462.75C969.669,440.038 969.023,403.857 967.869,402.257C966.349,400.149 965.186,375.769 962.043,372.492C955.343,365.504 956.061,363.395 936.933,358.98Z" style="fill:rgb(255,0,0);"/>
                </g>
            </g>
            <g id="ลายผ้าขาวม้าขวาง">
                <g opacity="0.31">
                    <path d="M871.502,358.73C870.762,359.367 869.67,360.052 869.106,360.626C867.038,362.735 866.156,365.683 864.974,367.994C864.839,368.258 864.989,369.37 865.141,369.522C865.284,369.666 865.848,369.381 865.995,369.522C866.53,370.035 868.879,370.203 869.787,370.203C870.064,370.203 871.488,370.403 871.697,370.203C871.948,369.962 872.105,367.851 872.152,367.525C872.364,366.061 872.823,364.888 873.579,363.631C874.37,362.315 875.103,361.046 875.655,359.665C875.78,359.353 876.907,358.179 876.85,358.124C876.508,357.796 875.732,358.406 875.475,358.471C874.372,358.747 872.973,359.165 871.85,359.165" style="fill:rgb(41,0,255);"/>
                    <path d="M890.161,356.012C892.476,354.491 897.435,355.231 899.006,356.744C899.27,356.997 898.24,358.3 898.145,358.459C897.127,360.165 896.007,362.781 895.51,364.726C895.136,366.193 895.268,367.803 894.823,369.177C894.706,369.539 894.932,369.974 894.708,370.198C894.551,370.355 893.884,370.025 893.686,370.025C892.264,370.025 891.049,369.914 889.67,369.684C888.707,369.524 887.583,369.766 886.74,369.344C886.057,369.002 886.392,367.529 886.392,366.934C886.392,364.423 887.242,361.931 887.954,359.705C888.309,358.598 888.847,356.755 889.851,356.086C890.17,355.873 892.24,355.75 892.24,356.08" style="fill:rgb(41,0,255);"/>
                    <path d="M911.005,356.08C913.246,356.08 915.486,356.08 917.727,356.08C918.2,356.08 919.6,355.897 919.949,356.246C920.144,356.441 919.655,356.971 919.609,357.107C919.173,358.402 918.4,359.549 918.053,360.906C917.748,362.1 917.451,363.299 917.199,364.503C916.818,366.326 917.493,368.784 916.75,370.272C916.708,370.356 915.448,370.272 915.382,370.272C914.002,370.272 912.867,370.299 911.583,370.619C910.429,370.907 910.15,370.12 909.347,369.585C908.916,369.297 907.985,369.243 907.639,368.897C907.182,368.441 907.915,366.389 907.986,365.966C908.347,363.795 908.38,361.207 909.63,359.316C910.056,358.67 910.802,356.559 911.699,356.559" style="fill:rgb(41,0,255);"/>
                    <path d="M936.774,356.883C940.623,356.883 944.146,355.903 947.015,358.772C948.014,359.771 950.041,360.425 949.078,362.311C948.863,362.733 946.301,363.151 945.8,363.353C942.676,364.614 940.262,367.187 937.079,368.245C935.381,368.81 933.817,371.32 932.788,372.349C932.492,372.645 931.683,374.061 931.419,374.071C931.41,374.071 931.434,373.587 931.419,373.557C930.618,371.949 928.773,372.851 927.461,372.516C926.955,372.387 926.526,372.05 926.072,371.821C925.734,371.65 924.577,372.104 924.357,371.654C924.187,371.308 924.559,370.471 924.665,370.152C925.169,368.64 926.01,367.727 926.94,366.495C928.738,364.111 930.191,361.003 932.802,359.251C933.335,358.894 933.628,358.333 934.156,358.064C934.778,357.747 935.486,358.126 935.864,357.369" style="fill:rgb(41,0,255);"/>
                    <path d="M965.5,374.014C965.141,374.389 964.123,374.573 963.611,374.701C963.088,374.832 962.74,375.39 962.229,375.562C961.377,375.849 960.438,375.983 959.594,376.257C955.474,377.592 951.019,377.808 946.856,379.197C944.499,379.984 942.527,381.806 940.381,382.942C939.479,383.42 938.437,383.651 937.45,383.984C937.018,384.13 935.873,384.016 935.64,384.491C935.465,384.848 937.234,387.177 937.522,387.741C937.837,388.361 937.471,390.635 937.869,391.049C938.53,391.736 940.281,390.479 941.133,390.195C942.626,389.696 943.473,388.848 944.918,388.125C945.994,387.587 947.389,387.481 948.522,387.098C949.746,386.684 950.714,385.686 951.995,385.361C955.844,384.385 959.822,384.421 963.71,383.632C964.127,383.548 967.456,383.691 967.655,383.292C967.788,383.027 967.482,382.091 967.482,381.757C967.482,380.169 966.963,377.699 966.338,376.451C965.938,375.653 964.528,375.091 964.528,374.294" style="fill:rgb(41,0,255);"/>
                    <path d="M940.531,405.891C945.129,405.155 949.426,403.297 953.984,402.729C957.865,402.246 961.975,402.902 965.833,402.902C967.759,402.902 969.973,402.657 971.471,403.699C971.609,403.794 971.471,405.392 971.471,405.537C971.471,407.289 971.819,408.799 971.819,410.466C971.819,410.937 971.212,409.707 970.791,409.496C969.981,409.09 969.141,409.155 968.208,409.155C964.927,409.155 961.203,408.734 958.033,409.503C953.711,410.551 949.666,412.939 945.223,413.757C944.293,413.928 941.421,415.257 940.815,414.047C940.622,413.662 940.815,412.602 940.815,412.158C940.815,410.825 940.092,408.721 940.482,407.518C940.583,407.206 941.162,406.451 941.162,406.331" style="fill:rgb(41,0,255);"/>
                    <path d="M941.741,430.6C945.416,428.318 949.074,429.754 953.089,428.943C957.931,427.966 964.24,427.414 969.263,428.249C970.295,428.42 973.226,429.466 973.555,430.124C973.769,430.551 973.382,432.521 973.382,433.156C973.382,433.657 973.963,435.493 973.555,435.899C973.436,436.018 970.481,435.681 970.111,435.733C966.682,436.211 963.493,435.393 960.107,435.393C958.89,435.393 957.189,436.22 955.975,435.914C955.363,435.759 953.511,435.413 952.871,435.74C951.319,436.532 949.851,437.176 948.117,437.738C947.508,437.935 946.678,437.633 946.047,437.738C944.453,438.003 943.991,438.426 942.63,437.744C942.447,437.652 941.919,437.882 941.776,437.744C941.511,437.489 941.833,435.912 941.776,435.522C941.483,433.509 941.139,431.873 941.139,429.725" style="fill:rgb(41,0,255);"/>
                    <path d="M942.028,454.752C943.326,454.198 943.87,454.491 945.105,454.245C946.066,454.053 946.952,453.691 947.862,453.384C948.322,453.229 948.934,453.534 949.397,453.384C951.178,452.806 954.063,453.044 955.99,453.044C958.915,453.044 962.732,452.503 965.449,453.384C966.895,453.854 968.559,454.223 970.037,454.593C971.558,454.973 973.422,454.244 974.856,454.932C975.165,455.081 974.888,455.645 974.74,455.954C974.239,456.999 973.709,458.809 973.423,460.093C973.313,460.587 973.768,462.511 973.423,462.843C973.334,462.928 972.258,462.843 972.222,462.843C971.076,462.843 969.802,462.552 968.669,462.322C965.433,461.663 962.058,461.965 958.869,462.482C958.353,462.566 957.593,462.315 957.096,462.482C953.951,463.536 950.143,464.436 946.8,464.436C945.945,464.436 944.541,464.647 943.767,464.899C943.309,465.047 942.413,465.888 942.413,465.406C942.413,463.381 942.44,461.138 941.544,459.384C941.052,458.42 941.718,456.43 941.718,455.432" style="fill:rgb(41,0,255);"/>
                    <path d="M940.336,480.247C945.39,476.878 951.5,478.492 957.823,476.945C961.417,476.065 967.824,475.987 970.156,478.32C971.043,479.206 973.991,478.43 974.935,479.334C975.45,479.828 976.606,486.638 975.614,487.673C975.016,488.297 972.099,487.093 971.489,486.992C969.573,486.672 967.107,487.588 965.267,486.992C963.428,486.396 961.348,485.938 959.1,486.312C954.729,487.039 950.458,488.598 946.017,488.598C945.401,488.598 943.368,489.58 942.919,489.279C942.679,489.119 942.919,486.92 942.919,486.645C942.919,484.508 942.714,483.072 942.224,481.117C942.025,480.323 942.605,479.084 941.993,478.468" style="fill:rgb(41,0,255);"/>
                    <path d="M941.776,504.016C943.05,503.806 946.723,503.457 948.318,502.641C950.22,501.668 953.278,501.946 955.54,501.946C959.334,501.946 966.123,500.67 969.304,502.294C970.296,502.8 972.624,502.574 973.415,503.335C973.782,503.689 973.568,504.829 973.749,505.363C974.222,506.765 975.836,510.68 974.79,512.252C974.61,512.523 971.887,512.252 971.476,512.252C968.372,512.252 964.221,512.203 961.299,513.178C960.069,513.588 958.967,514.34 957.868,514.901C956.953,515.368 955.348,514.448 954.424,514.901C951.997,516.091 948.815,516.154 946.071,516.841C945.122,517.078 942.848,518.404 942.048,517.637C941.665,517.27 942.396,515.617 942.396,515.234C942.396,512.814 942.743,510.624 942.743,508.359C942.743,507.145 942.743,503.69 942.743,504.029" style="fill:rgb(41,0,255);"/>
                    <path d="M941.252,533.355C949.861,533.355 958.024,532.328 966.508,532.328C967.996,532.328 970.035,532.6 971.299,531.98C971.667,531.8 973.247,530.53 973.703,530.967C973.993,531.245 973.567,532.615 973.703,533.022C974.263,534.701 974.231,536.914 973.703,538.494C973.348,539.558 973.737,541.224 973.036,541.925C972.176,542.785 968.172,543.207 966.883,543.648C961.501,545.488 955.564,546.398 949.646,546.398C948.237,546.398 942.756,549.581 941.294,548.119C940.805,547.63 941.64,545.162 941.64,544.661C941.64,541.338 941.64,537.452 941.64,534.239" style="fill:rgb(41,0,255);"/>
                    <path d="M940.35,559.32C947.957,559.374 955.531,558.639 963.221,558.639C965.246,558.639 968.649,556.929 970.749,557.959C971.347,558.253 971.082,559.494 971.082,560.014C971.082,562.048 971.415,564.337 971.415,566.557C971.415,566.878 971.62,568.407 971.415,568.611C970.474,569.553 964.833,570.001 963.484,570.001C957.798,570.001 952.478,571.622 946.738,571.622C945.209,571.622 940.542,571.817 939.919,570.593C939.346,569.466 940.314,567.365 940.613,566.468C941.401,564.106 940.961,559.566 940.961,557.177" style="fill:rgb(41,0,255);"/>
                    <path d="M936.812,580.26C941.597,580.26 946.271,580.839 951.216,580.839C954.33,580.839 957.056,581.173 960.189,581.173C961.947,581.173 965.842,581.957 967.411,581.173C967.701,581.028 969.068,580.441 969.466,580.839C970.512,581.886 970.147,584.586 970.147,586.354C970.147,586.84 970.512,589.985 970.147,590.335C969.083,591.355 966.667,590.923 965.573,591.71C963.911,592.905 958.512,592.796 956.281,592.044C955.156,591.664 953.319,592.037 952.271,592.39C950.379,593.027 947.296,592.39 945.28,592.39C943.501,592.39 938.569,593.645 937.275,592.404C937.076,592.214 937.622,590.788 937.622,590.363C937.622,587.638 937.275,584.591 937.275,582.113" style="fill:rgb(41,0,255);"/>
                    <path d="M935.062,604.127C938.878,605.998 942.501,606.171 946.669,604.779C948.267,604.246 950.611,604.827 952.183,604.446C954.183,603.961 956.799,604.652 958.609,603.766C960.932,602.629 965.126,603.431 966.832,601.725C966.915,601.642 968.432,601.65 968.54,601.725C968.702,601.836 968.54,603.408 968.54,603.651C968.54,605.359 969.521,607.931 968.888,609.803C968.496,610.961 968.489,612.617 967.859,613.567C967.196,614.567 965.723,613.793 964.879,614.262C959.56,617.215 952.291,614.302 946.627,616.216C942.941,617.461 939.423,617.391 935.858,616.201C935.532,616.093 933.332,616.094 933.094,615.855C931.945,614.706 933.679,608.761 934.354,607.748C934.695,607.237 934.548,606.026 935.034,606.026" style="fill:rgb(41,0,255);"/>
                    <path d="M931.025,628.637C937.756,632.425 947.505,631.864 955.239,631.864C957.741,631.864 960.229,631.518 962.808,631.518C963.218,631.518 964.414,630.837 964.749,631.184C964.821,631.26 964.821,632.844 964.749,632.92C962.98,634.764 962.866,639.301 960.721,640.351C955.784,642.767 947.581,639.8 941.946,639.8C939.708,639.8 935.142,640.458 933.131,639.453C932.266,639.02 929.366,638.492 928.992,637.744C928.691,637.142 929.454,636.466 929.673,636.036C930.139,635.124 930.816,628.695 930.816,629.726" style="fill:rgb(41,0,255);"/>
                    <path d="M926.372,648.574C930.146,648.955 933.547,649.674 937.012,650.514C940.905,651.458 945.207,651.687 948.836,652.93C949.755,653.246 950.706,653.182 951.573,653.624C951.989,653.837 952.933,652.824 952.933,653.291C952.933,657.056 949.446,658.417 946.836,659.749C946.176,660.086 944.799,661.327 943.868,660.778C941.024,659.101 936.544,657.653 933.187,656.972C930.04,656.334 927.109,656.624 924.59,654.208C922.45,652.156 926.646,649.204 926.646,646.693" style="fill:rgb(41,0,255);"/>
                    <path d="M914.297,658.014C914.554,658.754 918.081,655.105 919.15,655.639C922.515,657.319 925.674,660.324 928.775,661.874C929.326,662.15 931.492,663.75 931.15,664.264C929.812,666.27 925.197,666.19 922.608,666.19C922.131,666.19 920.311,666.514 919.974,666.19C919.515,665.748 919.075,663.821 918.599,663.106C917.084,660.833 913.834,659.328 915.862,657.3" style="fill:rgb(41,0,255);"/>
                    <path d="M858.417,361.142C857.039,362.743 856.193,364.053 855.323,365.757C854.816,366.75 854.813,368.557 854.042,369.361C853.922,369.486 852.954,369.361 852.761,369.361C852.022,369.361 848.28,369.863 847.799,369.361C847.191,368.728 848.776,365.947 848.906,365.302C849.163,364.037 850.253,361.067 851.208,360.59C851.785,360.302 853.406,360.59 854.042,360.59C856.021,360.59 857.875,360.34 859.939,360.34" style="fill:rgb(41,0,255);"/>
                    <path d="M840.226,362.639C839.208,364.102 840.43,367.954 839.271,369.066C839.015,369.31 835.955,368.492 835.677,368.306C835.29,368.047 835.887,365.725 835.927,365.559C836.254,364.211 836.17,360.995 837.381,360.402C838.271,359.967 842.009,360.402 843.048,360.402" style="fill:rgb(41,0,255);"/>
                    <path d="M829.229,362.229C828.829,363.816 828.618,365.993 827.937,367.385C827.756,367.753 828.22,368.905 827.937,369.177C827.574,369.524 824.596,369.2 824.312,368.916C824.02,368.624 824.453,367.072 824.571,366.833C825.206,365.55 824.564,362.184 825.582,361.166C826.493,360.255 829.883,361.677 830.783,361.677" style="fill:rgb(41,0,255);"/>
                    <path d="M818.154,362.655C818.154,366.201 818.749,369.378 814.551,367.976C814.485,367.954 814.551,366.388 814.551,366.26C814.551,365.029 814.645,363.987 815.061,363.155C815.371,362.535 817.634,361.838 817.634,362.374" style="fill:rgb(41,0,255);"/>
                    <path d="M809.956,362.593C810.67,364.764 811.527,368.968 808.415,367.382C807.985,367.163 806.702,367.711 806.373,367.382C805.971,366.979 806.998,366.105 807.134,365.84C808.285,363.59 808.456,362.527 811.228,362.527" style="fill:rgb(41,0,255);"/>
                    <path d="M803.717,363.124C803.529,364.237 803.195,365.34 803.195,366.468C803.195,366.81 803.432,368.372 803.195,368.617C802.504,369.336 801.264,366.576 801.654,365.795C802.102,364.898 802.16,364.007 802.675,363.492C803.067,363.1 803.79,363.399 804.206,362.983" style="fill:rgb(41,0,255);"/>
                    <path d="M796.814,363.003C798.336,363.419 797.869,366.395 797.247,367.617C797.135,367.837 795.702,368.384 795.456,368.128C793.972,366.58 795.407,362.483 797.247,362.483" style="fill:rgb(41,0,255);"/>
                    <path d="M789.518,364.632C789.518,364.427 790.576,367.122 790.289,367.552C790.055,367.904 789.257,367.802 788.845,367.802C788.648,367.802 787.675,367.929 787.553,367.802C787.365,367.606 787.644,366.781 787.553,366.51C787.316,365.811 786.527,364.832 786.542,364.458C786.558,364.073 789.527,363.437 789.865,363.437" style="fill:rgb(41,0,255);"/>
                </g>
            </g>
            <g id="เส้นขอบผ้าขาวม้าคาดเอว">
                <path d="M774.371,367.656C774.371,367.656 780.641,362.142 796.303,362.142C806.896,362.142 906.937,357.846 923.428,356.878C935.039,356.197 956.299,359.671 963.259,372.395C975.688,395.121 975.489,448.042 974.101,508.752C973.278,544.748 970.765,583.422 967.152,619.926C965.086,640.8 950.702,657.791 941.72,662.333C935.368,665.544 899.112,669.941 896.738,664.004C896.004,662.169 901.09,661.701 902.183,661.701C905.515,661.701 919.267,656.918 922.506,653.812C930.638,646.015 931.616,633.927 933.959,621.544C945.659,559.698 941.48,416.73 939.709,401.598C937.475,382.505 930.223,371.588 929.337,371.542C899.287,369.983 785.413,367.939 774.371,367.656Z" style="fill:none;stroke-width:3px;stroke:black;"/>
            </g>
        </g>
        <g id="ชายผ้าขาวม้า">
            <g id="ชายผ้าขาวม้า1">
                <path d="M893.282,672.491C893.282,680.426 890.846,688.77 888.94,696.419C888.249,699.189 887.59,702.565 885.639,704.554C883.98,706.244 884.953,710.725 883.583,712.096C883.499,712.179 883.498,714.067 883.583,714.152C884.602,715.171 887.281,715.179 888.735,715.179C893.595,715.179 897.972,713.275 900.186,708.753C901.009,707.072 900.623,704.678 901.227,702.891C901.767,701.297 901.227,698.624 901.227,696.928C901.227,691.95 900.88,687.095 900.88,682.163C900.88,680.696 901.53,676.285 900.546,675.301C899.775,674.53 894.046,672.315 894.046,671.885" style="fill:white;stroke-width:3px;stroke:black;"/>
                <path d="M905.306,667.195C912.564,668.121 915.757,672.749 918.334,679.08C921.553,686.989 924.441,694.216 924.441,702.989C924.441,706.449 924.441,709.909 924.441,713.369C924.441,714.613 924.878,716.36 923.774,716.902C922.735,717.412 920.775,716.674 919.635,716.902C918.077,717.212 914.203,719.399 912.658,718.61C908.256,716.362 909.708,711.683 908.302,707.521C906.234,701.405 906.263,694.475 905.537,688.038C905.006,683.325 905.075,677.169 902.093,674.187C901.854,673.948 902.093,672.191 902.093,671.812C902.093,669.512 904.692,664.465 907.593,667.366" style="fill:white;stroke-width:3px;stroke:black;"/>
            </g>
            <g id="ลายชายผ้าขาวม้า">
                <g opacity="0.31">
                    <path d="M896.788,680.24C896.788,683.048 898.6,686.694 897.569,689.782C896.111,694.149 895.676,699.315 894.54,703.777C893.919,706.217 894.346,709.272 893.259,711.408C893.072,711.777 890.896,714.031 891.749,714.624C892.374,715.058 893.755,714.424 894.214,714.19C896.046,713.253 899.333,711.635 900.402,709.533C901.63,707.118 900.603,704.406 901.444,701.815C902.45,698.713 901.944,694.433 901.944,691.046C901.944,688.512 901.742,685.498 902.715,683.556C903.24,682.508 902.734,678.679 902.215,678.16C901.799,677.744 900.757,677.9 900.152,677.9" style="fill:rgb(255,0,0);"/>
                    <path d="M908.05,672.386C909.334,671.73 910.587,668.182 912.599,669.205C915.54,670.701 916.249,674.387 918.168,676.306C920.255,678.393 920.37,681.881 921.7,684.494C922.14,685.361 921.79,686.693 922.221,687.557C924.577,692.277 925.512,696.934 925.512,702.709C925.512,705.635 926.5,709.435 925.262,711.907C924.637,713.156 925.788,715.747 924.752,716.783C924.066,717.469 921.323,716.098 920.637,716.783C920.506,716.914 918.565,718.044 918.043,717.543C917.812,717.322 918.043,715.599 918.043,715.241C918.043,713.096 918.124,710.751 917.61,708.717C916.787,705.461 916.541,702.205 915.526,699.164C915.083,697.839 915.725,695.966 915.092,694.702C914.503,693.527 913.999,692.235 913.724,691.011C913.376,689.46 913.849,687.656 913.463,686.114C913.014,684.32 912.682,682.325 912.682,680.438C912.682,679.908 912.784,678.227 912.432,677.875C912.005,677.448 911.527,676.556 911.171,675.844C910.613,674.726 908.709,673.995 908.088,672.75C907.702,671.976 910.133,668.896 910.651,668.896" style="fill:rgb(255,0,0);"/>
                </g>
            </g>
            <g id="ลายชายผ้าขาวม้าตามขวาง">
                <g opacity="0.31">
                    <path d="M892.82,678.243C894.939,678.243 897.435,677.837 899.205,676.951C900.343,676.383 901.767,675.94 902.518,676.691C903.444,677.617 902.733,679.439 903.288,680.525C904.178,682.263 903.549,685.697 903.549,687.754C903.549,689.898 904.236,693.867 903.288,695.723C902.536,697.197 903.553,700.052 903.029,701.629C902.515,703.174 903.006,705.072 902.268,706.515C901.324,708.361 901.542,711.733 899.163,712.922C897.858,713.575 896.293,713.779 894.994,714.443C893.455,715.228 890.848,717.48 888.858,716.485C887.298,715.705 885.09,716.882 884.264,715.224C883.883,714.458 884.785,713.038 884.785,712.119C884.785,710.282 884.542,708.071 885.035,706.595C885.889,704.035 887.698,701.808 888.369,699.126C888.826,697.3 888.286,693.942 889.052,692.243C889.931,690.296 889.779,688.245 890.431,686.284C892.234,680.862 894.782,677.358 900.67,677.358" style="fill:rgb(41,0,255);"/>
                    <path d="M906.491,674.211C907.144,673.571 908.107,673.051 908.543,672.18C909.263,670.744 908.993,669.198 910.053,668.097C910.25,667.892 911.787,668.097 912.106,668.097C916.272,668.097 915.466,671.834 917.686,674.101C921.179,677.667 922.477,684.017 923.787,689.147C924.527,692.046 924.101,695.767 925.058,697.723C925.702,699.038 925.621,701.006 926.099,701.946C928.112,705.903 926.637,710.293 925.329,712.856C924.817,713.858 925.502,715.964 924.047,716.689C922.69,717.365 921.884,716.472 920.509,716.929C919.483,717.27 915.532,718.134 915.363,717.971C915.064,717.685 913.966,718.159 913.581,717.971C912.759,717.568 910.95,716.815 910.303,716.168C909.3,715.165 910.141,713.141 909.488,711.856C909.306,711.498 909.138,708.432 909.064,708.456C908.786,708.549 908.208,706.085 908.033,705.209C907.862,704.357 907.078,703.166 907.598,702.126C907.802,701.718 908.122,700.84 907.859,700.314C907.251,699.097 906.884,697.203 906.578,695.939C906.079,693.884 906.726,691.188 906.057,689.209C905.292,686.945 906.084,684.39 905.363,682.23C905,681.143 903.908,679.146 904.341,677.864C905.461,674.555 907.214,673.44 909.412,671.242" style="fill:rgb(41,0,255);"/>
                </g>
            </g>
            <g id="เส้นขอบชายผ้าขาวม้า">
                <path d="M893.282,672.491C893.282,680.426 890.846,688.77 888.94,696.419C888.249,699.189 887.59,702.565 885.639,704.554C883.98,706.244 884.953,710.725 883.583,712.096C883.499,712.179 883.498,714.067 883.583,714.152C884.602,715.171 887.281,715.179 888.735,715.179C893.595,715.179 897.972,713.275 900.186,708.753C901.009,707.072 900.623,704.678 901.227,702.891C901.767,701.297 901.227,698.624 901.227,696.928C901.227,691.95 900.88,687.095 900.88,682.163C900.88,680.696 901.53,676.285 900.546,675.301C899.775,674.53 894.046,672.315 894.046,671.885" style="fill:none;stroke-width:3px;stroke:black;"/>
                <path d="M905.306,667.195C912.564,668.121 915.757,672.749 918.334,679.08C921.553,686.989 924.441,694.216 924.441,702.989C924.441,706.449 924.441,709.909 924.441,713.369C924.441,714.613 924.878,716.36 923.774,716.902C922.735,717.412 920.775,716.674 919.635,716.902C918.077,717.212 914.203,719.399 912.658,718.61C908.256,716.362 909.708,711.683 908.302,707.521C906.234,701.405 906.263,694.475 905.537,688.038C905.006,683.325 905.075,677.169 902.093,674.187C901.854,673.948 902.093,672.191 902.093,671.812C902.093,669.512 904.692,664.465 907.593,667.366" style="fill:none;stroke-width:3px;stroke:black;"/>
            </g>
        </g>
        <g id="ปมผ้าขาวม้า">
            <g id="ปมผ้าขาวม้า1">
                <path d="M898.459,656.084C897.467,655.092 895.615,655.976 894.723,656.432C892.041,657.801 888.444,658.014 885.557,659.488C883.875,660.346 881.121,659.628 879.432,660.488C877.812,661.311 878.39,664.404 878.39,665.96C878.39,669.017 877.698,673.504 880.445,674.904C881.259,675.319 883.304,675.746 883.876,676.294C884.334,676.733 884.1,677.874 884.542,678.335C885.602,679.44 890.782,678.683 892.274,678.683C897.122,678.683 901.45,677.994 904.511,674.933C905.086,674.358 906.25,672.883 906.901,672.558C909.878,671.069 909.247,669.526 910.303,667.419C910.702,666.622 911.524,664.759 910.984,663.682C909.859,661.435 905.699,661.751 904.164,660.279C902.127,658.326 902.615,655.501 899.039,655.501" style="fill:white;stroke-width:3px;stroke:black;"/>
            </g>
            <g id="ลายปมผ้า">
                <g opacity="0.595467">
                    <path d="M904.974,661.214C900.34,658.852 893.014,662.735 889.195,664.604C887.074,665.643 880.228,668.621 878.846,665.863C878.67,665.512 876.996,661.627 879.723,660.778C881.146,660.336 885.96,659.295 888.503,659.047C891.857,658.719 903.641,652.161 903.641,659.797" style="fill:rgb(255,0,0);"/>
                    <path d="M908.974,663.177C908.974,663.177 905.894,665.656 905.003,666.511C901.981,669.408 895.36,668.227 890.669,670.568C889.989,670.907 881.196,673.94 883.034,675.856C888.745,681.813 907.416,672.416 909.641,667.956C910.465,666.303 912.181,663.177 908.974,663.177Z" style="fill:rgb(255,0,0);"/>
                </g>
            </g>
            <g id="ลายปมผ้าขวาง">
                <g opacity="0.30991">
                    <path d="M887.573,658.395C886.124,658.64 883.72,658.296 883.026,659.684C882.216,661.304 882.58,662.784 883.02,664.541C883.515,666.519 883.574,668.412 884.221,670.243C884.548,671.17 885.563,672.171 886.117,673C886.729,673.917 886.86,675.118 887.658,675.917C887.938,676.197 888.993,676.135 889.381,676.264C890.943,676.785 891.805,677.972 893.645,677.972C893.866,677.972 894.867,678.113 895.013,677.972C896.065,676.964 899.524,679.449 898.719,677.029C897.779,674.205 891.807,671.259 890.469,668.629C889.996,667.7 889.505,666.817 889.311,665.763C888.937,663.729 890.226,660.874 888.675,659.256C888.195,658.756 886.802,658.916 885.953,658.916" style="fill:rgb(41,0,255);"/>
                    <path d="M896.55,655.529C895.983,655.379 895.319,655.292 894.893,655.703C894.621,655.964 895.069,657.059 894.893,657.411C894.338,658.518 894.545,660.092 894.545,661.377C894.545,662.24 894.787,664.066 895.24,664.821C895.71,665.606 896.586,666.085 896.948,666.992C897.871,669.309 898.815,671.811 900.668,673.629C901.442,674.389 902.93,676.703 904.18,675.453C905.126,674.508 906.061,673.391 906.895,672.557C907.056,672.397 906.807,671.619 906.721,671.537C905.836,670.688 904.614,670.464 903.638,669.488C901.942,667.792 901.001,666.32 900.013,664.321C899.633,663.552 898.85,663.013 898.464,662.259C897.744,660.851 898.304,657.973 897.378,657.048C897.181,656.851 897.408,656.23 897.212,656.033C896.549,655.37 892.774,655.482 892.774,656.541" style="fill:rgb(41,0,255);"/>
                </g>
            </g>
            <path id="เส้นขอบปม" d="M898.459,656.084C897.467,655.092 895.615,655.976 894.723,656.432C892.041,657.801 888.444,658.014 885.557,659.488C883.875,660.346 881.121,659.628 879.432,660.488C877.812,661.311 878.39,664.404 878.39,665.96C878.39,669.017 877.698,673.504 880.445,674.904C881.259,675.319 883.304,675.746 883.876,676.294C884.334,676.733 884.1,677.874 884.542,678.335C885.602,679.44 890.782,678.683 892.274,678.683C897.122,678.683 901.45,677.994 904.511,674.933C905.086,674.358 906.25,672.883 906.901,672.558C909.878,671.069 909.247,669.526 910.303,667.419C910.702,666.622 911.524,664.759 910.984,663.682C909.859,661.435 905.699,661.751 904.164,660.279C902.127,658.326 902.615,655.501 899.039,655.501" style="fill:none;stroke-width:3px;stroke:black;"/>
        </g>
    </g>
</svg>
